<svg xmlns="http://www.w3.org/2000/svg" width="361.11" height="171.48" viewBox="0 0 361.11 171.48"><defs><style>.cls-1{fill:#20201e;}.cls-2{fill:#2a2826;}.cls-3{fill:#2d2c2b;}.cls-4{fill:#312f2e;}.cls-5{fill:#2e2d2b;}.cls-6{fill:#3a3736;}.cls-7{fill:#464746;}.cls-8{fill:#363433;}.cls-9{fill:#bda38d;}.cls-10{fill:#bea48e;}.cls-11{fill:#bea48d;}.cls-12{fill:#bfa48e;}.cls-13{fill:#fcfbfb;}.cls-14{fill:#d8ba9f;}.cls-15{fill:#b19985;}.cls-16{fill:#fff;}.cls-17{fill:#3e2216;}.cls-18{fill:#d8bba2;}.cls-19{fill:#e30c15;}.cls-20{fill:#e52527;}.cls-21{fill:#dd2324;}.cls-22{fill:#351b16;}.cls-23{fill:#e32324;}.cls-24{fill:#fdfdfd;}.cls-25{fill:#fbfafa;}.cls-26{fill:#e21017;}.cls-27{fill:#f4f1f1;}.cls-28{fill:#d7191b;}.cls-29{fill:#f6f5f6;}</style></defs><title>Logo-Website-Namibia-Breweries-Limited</title><g id="Layer_2" data-name="Layer 2"><g id="Layer_1-2" data-name="Layer 1"><path class="cls-1" d="M97.56,135.87c-5.16-.62-8.45-3.92-9.82-9.71a47.31,47.31,0,0,1-6.8-1.08,12,12,0,0,1-8.31-8.54L47,28.6a8.34,8.34,0,0,1-.14-.85l2.89-.7C51.34,32.42,53,37.63,54.4,42.91c.48,1.81,1.35,2.54,3.32,2.41L52.37,26.58l2.88-.73c.18.55.38,1.06.54,1.59,1.58,5.45,3.23,10.88,4.68,16.37.54,2,1.47,3.44,3.8,3.94C62.18,40.33,60.1,33,58,25.4l3-.79C63,32,65,39.19,67,46.55c1.42-.93,2.06-1.85,1.52-3.73-1.78-6.12-3.31-12.3-5-18.62l2.93-.81c1.67,6.32,3.33,12.57,5,18.83,1.88-.7,2.24-1.72,1.71-3.56C71.71,33.52,70.49,28.31,69.13,23l3-.79c1.27,4.33,2.53,8.59,3.77,12.85q11,37.72,22,75.46c1.62,5.58.11,10-4.69,13-1.55,1-1.59,2.12-1.19,3.54a7.41,7.41,0,0,0,7.32,5.14c7.6.09,15.21,0,23.1,0a18.72,18.72,0,0,1-5.14-10.54c-6.6-.27-11.31-3.42-12.89-8.75a35.62,35.62,0,0,1-.95-5.46Q98.35,69.13,93.29,30.74c-.48-3.66-1-7.32-1.51-11.11l3-.47,2,14.31a11.42,11.42,0,0,1,.28,2.08c-.1,2,1,2.7,2.88,2.78-.81-6.35-1.62-12.67-2.45-19.2l3-.42c.55,4.12,1.09,8.14,1.62,12.17.29,2.15.68,4.3.78,6.47a4.18,4.18,0,0,0,3.12,4.19c-.94-7.65-1.88-15.22-2.84-23l3.06-.27c.9,7.48,1.78,14.87,2.67,22.28,2.22-1,2.3-1.09,2.06-3.37-.67-6.28-1.37-12.57-2.08-19l3-.43c.69,6.41,1.36,12.72,2,19.05,2.42-.5,2.51-.65,2.26-3-.56-5.33-1.08-10.66-1.64-16.17l3-.43c.47,3.39.93,6.66,1.37,9.93q3.22,23.93,6.42,47.87c1.57,11.84,3.16,23.68,4.53,35.55.18,1.53-.68,3.36-1.51,4.79a13.88,13.88,0,0,1-7.8,6.07c.39,5.06,4,8.86,9.91,10.62a6.67,6.67,0,0,0,1.92.67c10.39,0,20.78,0,31.18.05a2.91,2.91,0,0,0,3-1.56c1.11.27,2.23.54,3.35.79a49.31,49.31,0,0,0,24.28-.8c.87.51,1.73,1.47,2.6,1.48,10.66.1,21.31.08,32,0,.51,0,1-.45,1.53-.68,5.4-1.51,8.85-4.82,9.89-10.4-.19-.17-.27-.29-.37-.33-7.37-3.09-9.7-7.15-8.66-14.91q4.42-33.15,8.8-66.3c1-7.54,2-15.06,3.12-22.85l3,.38c-.33,3.44-.64,6.84-1,10.24-.19,2-.3,4-.63,5.9-.31,1.77.23,2.79,2.25,3.15.67-6.32,1.35-12.62,2-19.09l3,.22c-.29,2.87-.56,5.71-.87,8.54-.42,3.81-1,7.62-1.21,11.44-.05.9.95,1.87,1.47,2.81l.6-.24,2.69-22.32,3.06.23c-.95,7.72-1.89,15.29-2.86,23.08,1.76-.9,2.88-1.78,3.09-3.83.66-6.29,1.57-12.55,2.42-19l3.06.35c-.83,6.48-1.63,12.79-2.44,19.16,1.93,0,2.7-.76,2.92-2.64.6-5.45,1.42-10.87,2.18-16.43l3.05.43c-1.19,9-2.36,17.82-3.53,26.67l-5.58,42c-1,7.79-2,15.59-3.12,23.36-.84,5.87-6.51,10.11-13,10a52.41,52.41,0,0,1-1.92,5.54,50.75,50.75,0,0,1-3.08,5c7.8,0,15.58,0,23.37,0a5,5,0,0,0,1.32-.21,7.35,7.35,0,0,0,5-3.89c1.12-2.34.9-3.23-1.2-4.74-4.39-3.16-5.84-7.33-4.28-12.73q12.69-43.71,25.44-87.4a10.25,10.25,0,0,1,.39-1l2.92.67-4.57,17.86,2.18,1.56c1.68-6.35,3.31-12.54,5-18.9l3,.68c-1.08,4.08-2.14,8.07-3.19,12.06-.56,2.09-1,4.24-1.7,6.27a2.93,2.93,0,0,0,1.41,4.08c2-7.29,4.06-14.55,6.11-21.92l3,.76c-2.11,7.44-4.18,14.78-6.33,22.42,1.87-.69,3.13-1.35,3.64-3.33,1.62-6.16,3.46-12.25,5.29-18.63l3,.73c-1.81,6.31-3.57,12.48-5.35,18.71,1.93.19,2.82-.52,3.3-2.32,1.43-5.28,3.06-10.51,4.66-15.89l3,.68c-1.85,6.39-3.66,12.67-5.49,19-6.71,23-13.55,46-20.07,69.05a13.71,13.71,0,0,1-14.16,10.11l-1.24-.08c-.35,2.94-1.37,5.62-3.75,7.29-1.77,1.24-3.95,1.88-5.95,2.79a5.51,5.51,0,0,0-.57-.06l-161.88,0c-1.15,0-2.29,0-3.44,0m22.25-82.24c-7.72,4.13-11,10.76-5.92,19.19,8.3-4.53,10.5-11.52,5.92-19.19m-47,54.6c-.9,8.46,3.41,14.44,13.39,15.57,1.4-8.18-4.5-15.1-13.39-15.57m30.47-21.14c-2,7.57.42,14.58,10.89,17.16,2.55-8.12-1.86-15.15-10.89-17.16m14.8,16.53c8.21-4,10.87-12.77,5.81-19.13-7.29,4.07-11,10.28-5.81,19.13M64.17,78.24c-1.29,8.52,4,14.66,13.33,15.46.87-8-3-14.39-13.33-15.46m21.36,29.49c7.59-5.28,8.76-13.1,3-19.79-7.55,5.07-8.71,12.43-3,19.79m-8.85-30c7.56-5.22,8.74-13.11,3-19.72-7.47,4.83-8.72,12.7-3,19.72M108.1,58c2.1-8.05-.92-14.68-10.87-17.14-2.72,7.81,2,15.25,10.87,17.14M93,103c-7.37,5.12-9,12.53-2.91,19.72,7-5.21,9.09-12,2.91-19.72m33.15-3c-7.8,3.93-11,11-5.92,19.06,8-3.91,10.48-11.71,5.92-19.06M248.76,88.82c9.07-2.23,13.44-8.75,10.75-17.1-8.82,1.88-13.1,8.61-10.75,17.1M73.12,78.73c1.34-8.28-4.54-15.06-13.38-15.57-1.27,8.39,4.34,15,13.38,15.57m-.81-16c6.82-5.06,9.3-12,2.92-19.72-7.44,5-8.68,13.08-2.92,19.72m195.56,40.23c-5.23,6.86-5.23,13.88,3.09,19.72,5.56-7.11,4.48-14.26-3.09-19.72M239,69.12c-4.7,7.15-2,15.72,6,19,4.52-7.48,2.15-15-6-19M116.15,119.7c2.46-8.21-1.38-15-10.81-17.1-2.61,8,2,15.32,10.81,17.1M301.08,63.19c-9,.73-14.84,7.54-13.22,15.5,9-.94,14.5-6.58,13.22-15.5M111.71,57.37c8.23-4.14,10.73-12.29,6-19.08-8,3.52-10.55,11.47-6,19.08M276.78,73c-5.77,6.44-4.58,14.35,3,19.65,5.73-6.53,4.51-14.62-3-19.65M116,88.18c8.12-4,10.49-11.52,6-19.06-8,3.3-10.77,12.16-6,19.06M234.77,99.9c-4.2,7.45-3,14.48,6,19.06,4.68-7.18,2.35-14.67-6-19.06m-122.64-11c2.07-8.09-.78-14.77-10.83-17.18-2.67,8,1.47,14.61,10.83,17.18M68.7,63.67c1.37-8.29-4.47-15.11-13.28-15.5-1.08,8.19,3.25,14.46,13.28,15.5m13.07,45.2c1-7.87-2.75-14.55-13.26-15.61-1.2,9.7,4.61,14.31,13.26,15.61M84.13,73c-7,4.88-9.22,12.25-2.89,19.69,6.68-5,9.29-11.72,2.89-19.69M305.47,48.14c-9.12.82-15,7.74-13.24,15.53,8.66-.33,14.76-7.49,13.24-15.53M292.41,93.22c-9,.67-15.15,7.94-13.25,15.49,8.64-.32,14.54-7.15,13.25-15.49m-8.16-15.57c5.57-7.19,4.46-14.32-3-19.67-5.79,6.17-4.53,14.73,3,19.67m-185-21.43c-2.47,8.47,1.54,15,10.82,17.13,2.52-8.1-1.83-15-10.82-17.13M250.87,73.35c8.6-1.56,13.57-9.45,10.71-17-8.56,1.47-13.62,9.5-10.71,17m-7.65-35.1c-4.62,7.52-2.2,15.14,5.93,19.06,4.72-7,2.34-14.8-5.93-19.06M283.47,93.7c10.27-1.09,14.29-7.53,13.29-15.47-10.66,1.13-14.27,7.9-13.29,15.47m-11.09-5.78c-5.74,6.79-4.44,15.11,3,19.68,6.5-8.36,3.48-14.73-3-19.68M285.59,43c-5.65,6.76-4.35,15.09,3.06,19.58,5.67-6.62,4.35-15-3.06-19.58M246.7,104.29c8.49-2.23,13.5-7.85,10.8-17.16-8.91,2-13,8.4-10.8,17.16m-2,15.45c9.37-2.52,13.86-9.85,10.66-17.19-8.14,2.27-13.21,7.39-10.66,17.19M288,108.27c-8.8.46-14.64,7.33-13.21,15.55,9.12-.85,15-7.8,13.21-15.55m-24.31-67.5C254.25,43.43,249.64,51,253,58c9-2.31,13.15-9,10.63-17.19m-16.56,32c4.14-7.14,3-14.65-6.09-19-4.43,7.79-2,15.23,6.09,19m-4.21,30.89c4.47-8,2.1-15.37-6-19.06-4.57,7.33-2.25,14.8,6,19.06"/><path class="cls-2" d="M230.42,132.07c-.51.23-1,.67-1.53.68-10.65,0-21.3.06-32,0-.87,0-1.73-1-2.6-1.48l1.95-.76c14.4-5.56,24.63-15.28,26.92-30.86,1.39-9.5.44-19.33.55-29V40.29h-86.7v2q0,12.27,0,24.55,0,13.8.08,27.61c0,1.08,0,2.17.12,3.24a38.25,38.25,0,0,0,12.61,24,47.18,47.18,0,0,0,16.83,9.58,2.91,2.91,0,0,1-3,1.56c-10.4,0-20.79,0-31.18-.05a6.67,6.67,0,0,1-1.92-.67h34.18a2.17,2.17,0,0,1,.07-.24c-1.15-.46-2.31-.89-3.43-1.4-12.91-5.88-21.66-15.31-24.85-29.37a34.64,34.64,0,0,1-.81-7.61c-.08-17.77-.06-35.55-.08-53.32,0-.31,0-.62.06-1.07h12c-1.31-1.54-2.42-2.62-4.4-2.45s-3.89,0-5.84,0l-.49-.83c.41-.16.83-.29,1.23-.48a30.59,30.59,0,0,0,3.24-1.62c2.66-1.69,5.23-2.46,8.36-.92.92.45,2.59-.65,4.38-1.17L141.28,24c.07-.26.14-.51.22-.76l12.34,1.14c-1-2-.35-4.33-2.64-5.53a25.45,25.45,0,0,1-5.2-3.49,6.72,6.72,0,0,1,1.43-.29c2.5.1,5,.13,7.47.44.79.1,1.48,1,2.21,1.51,1,.73,1.28,2.45,3.24,2.18-1.48-3.3-2.92-6.46-4.31-9.64A6.61,6.61,0,0,1,155.78,8a5.86,5.86,0,0,1,1.59.57c2.41,1.88,4.77,3.82,7,5.64,3.72-4.05.74-7.61-1.28-11.7a9.55,9.55,0,0,1,1.82.57c1.23.8,2.36,1.77,3.65,2.47,2.42,1.32,3.95,3,3.62,6-.06.58.86,1.35,1.46,1.89a14.2,14.2,0,0,0,2.11,1.3c1.36-5,2.69-9.82,4-14.67l.85,0q1.59,6.32,3.17,12.64l.44.45c.17-.39.25-1,.53-1.13,4-1.7,5.51-4.93,5.76-9,0-.33.32-.63.69-1.29a16.49,16.49,0,0,1,.87,1.62,32.08,32.08,0,0,0,1.23,3.41,5.61,5.61,0,0,1-.69,6.92c-.55.66-.08,2.18-.08,3.3l.63.09L203.8,6.87l.54.14a6.56,6.56,0,0,1-.1,1.67c-1,3-2.07,6-3.11,9,5.21,1.69,7.7-2.49,10.83-5.27l.46.43c-.1.57-.16,1.15-.3,1.71a24,24,0,0,0-.79,3c-.35,2.93-1.67,4.95-4.67,5.71-.53.14-.92.75-1.38,1.14.09.15.18.29.26.44l12.83-2.2.24.77-8.68,6.13a8.41,8.41,0,0,0,9.26,1.86,20.81,20.81,0,0,1,3.07-.59l.27.73c-2.3,1.88-4.53,3.86-6.95,5.58-.62.44-1.88.21-2.78,0a3.8,3.8,0,0,0-4.71,1.88H225v2.12c.06,16.69-.21,33.39.28,50.06.56,19.06-11.57,33.92-27.44,40.06a4.38,4.38,0,0,0-1.59.9ZM210,16c-1.85,2.64-4.56,3.15-7.52,3.07a2.14,2.14,0,0,0-.95.05c-.42.19-1,.45-1.12.81-1.15,3.14-2.22,6.31-3.42,9.79a23.71,23.71,0,0,1,3.82-.86c2.15-.1,3-1.25,3.07-3.23A3.8,3.8,0,0,1,207,21.74a3.5,3.5,0,0,0,2.76-3.21,15.76,15.76,0,0,1,.58-2.22c0-.17,0-.33,0-.5ZM141.47,35.43a7.75,7.75,0,0,1,7.45,2.84c.07.09.21.13.32.2.31.19.62.54.93.55,3,0,6,0,8.92,0,.23,0,.46-.42.69-.64.43-3.27.43-3.27-2.51-5a2.67,2.67,0,0,1-.49-.3,2.41,2.41,0,0,0-3.53,0,4.31,4.31,0,0,1-5.06.57,4.65,4.65,0,0,0-2.87-.45,23.49,23.49,0,0,0-4,2.06l-.21.2.38,0M202,10.34c-2.55,2.4-5.11,4.8-7.64,7.22-.3.28-.73.89-.63,1.05.89,1.43-.41,1.76-1.13,2.33-.94.75-1.94,1.42-2.85,2.09l6.54,5,6-17.46,0-.48-.25.27M149.8,16.51c0-.08-.05-.16-.07-.24l-.16.05.23.19a14.1,14.1,0,0,1,1.87,1.24c.8.72,2,1.48,2.16,2.37.79,5.16,5,7.7,7.91,11.37l2.55-3.64c-1-2.12-1.88-4.23-2.89-6.28-.24-.49-.87-1.19-1.22-1.14-1.65.25-2.39-.81-3.27-1.84-.64-.76-1.36-1.79-2.19-2a26,26,0,0,0-4.92-.12m16.7-11-.43-.08c.05.13.11.26.16.4,1.19,2.09,2.09,4.16.55,6.54a4.74,4.74,0,0,0-.78,2.7c.26,3.34.72,6.66,1.1,9.93,2.08-1,4.05-1.84,6-2.82a2.21,2.21,0,0,0,1-1.2c.52-1.63.93-3.3,1.4-5a21.22,21.22,0,0,0-2.65-1.6,2.93,2.93,0,0,1-2-3.27,3.85,3.85,0,0,0-2.3-4.16,16.5,16.5,0,0,1-2.05-1.4M161.08,38.9h38c0-9-8.63-16.62-18.77-16.66-10.41,0-19.18,7.5-19.21,16.66m19.28-35-.37,0q-2.33,8.72-4.65,17.38h9.24q-2.12-8.71-4.22-17.4M191.6,5.55l-.5-.19c.47,3.86-2.1,5.43-4.77,6.92-.28.15-.64.31-.76.56-.42.88-1.13,1.84-1,2.69a36.73,36.73,0,0,0,1.32,5.58,2.19,2.19,0,0,0,2.89,1.17c1.36-.9,2.64-1.92,3.94-2.88-.56-1.29-1-2.45-1.54-3.51a2,2,0,0,1,.22-2.74c1.89-1.86,2-3.93.74-6.18a8.22,8.22,0,0,1-.5-1.42M219,32.67c-4.79.54-4.77.49-9.11-1.52a3.22,3.22,0,0,0-2.56.17c-1.92,1.13-3.61,2.64-5.53,3.76-1.71,1-2.08,2.16-1.27,3.78,3.28.57,6.21.35,8.46-2.54a3.15,3.15,0,0,1,2.75-.48c3.36,1,5.11-1.19,7.26-3.17m-3.68-8.45c-3.28.6-6,1.14-8.78,1.57-1.2.18-1.85.69-1.85,1.92s-.77,1.7-1.92,1.9c-1.6.29-3.17.74-4.8,1.14.67,1.54,1.24,2.88,1.87,4.34l15.48-10.87m-70,.42c0,.11-.09.22-.14.33l15.56,9.15c.07-.75.34-1.49.12-1.69-3.13-2.89-4.87-7.72-10.42-7.26a28.08,28.08,0,0,1-5.12-.53m12.85-13.92L158,11l7.35,16.38c.31-.93.54-1.28.51-1.61-.33-3-.68-6.1-1.08-9.14a1.9,1.9,0,0,0-.66-1.08c-1.95-1.62-3.94-3.2-5.91-4.8"/><path class="cls-3" d="M124.4,151c3.09,0,6-.2,8.95.06s4.11,1.55,4.35,3.53-.81,3.69-3.27,4.86c-.27.13-.54.24-1.09.47.61.2.95.34,1.3.42,2,.49,3.48,1.53,3.77,3.77a4.82,4.82,0,0,1-2.66,5.26,27.11,27.11,0,0,1-5,1.26,3.76,3.76,0,0,1-.95,0H124.4Zm2.94,18.71a36,36,0,0,0,5.47-.75,4.22,4.22,0,0,0,2.64-4.61c-.23-2-1.55-3-3.42-3.24-1.55-.21-3.11-.3-4.69-.44Zm0-9.77a46,46,0,0,0,5.57-1.22,2.82,2.82,0,0,0,1.83-3.4,4.19,4.19,0,0,0-1.92-2.7c-1.63-.59-3.49-.53-5.48-.77Z"/><path class="cls-4" d="M291,170.57h-2.61V157.11H291c0,.53,0,1.06.07,1.67,3.23-3.05,6.59-2.88,9.26.46a5.8,5.8,0,0,1,5-2.63c3.12,0,4.88,1.73,4.9,4.84s0,6,0,9.06h-2.65c0-3,0-5.92,0-8.83,0-1.34-.33-2.84-1.74-3.06a8.17,8.17,0,0,0-4.12.61c-.57.23-1,1.45-1,2.24-.12,3-.05,6-.05,9.06H298c0-2.89,0-5.73,0-8.58,0-2.39-1.16-3.68-3.18-3.71a3.4,3.4,0,0,0-3.74,3.5c-.12,2.92,0,5.84,0,8.83"/><path class="cls-4" d="M51.5,170.6H48.89c0-2.88,0-5.74,0-8.59,0-2.51-1-3.71-3.07-3.77A3.58,3.58,0,0,0,42,161.88c-.11,2.55,0,5.12,0,7.67,0,.3,0,.61,0,1H39.38V157.06h2.55v1.73c3.61-3.07,6.51-2.92,8.94-.06,1.85-.75,3.48-1.82,5.22-2,3.18-.39,5,1.56,5,4.77,0,2.94-.06,5.88-.1,8.82,0,0-.06.09-.17.23H58.47c0-3,0-5.94,0-8.87,0-2.31-1.07-3.39-3.2-3.4a3.38,3.38,0,0,0-3.74,3.45c-.06,2.37,0,4.73,0,7.1v1.81"/><path class="cls-3" d="M1.81,155.34v15.13H0V150.59l.5-.21,16,15.48V151l1.79-.11v20.58c-5.64-5.55-10.87-10.69-16.43-16.14"/><path class="cls-3" d="M361.11,149.08v21.41h-2.46c-.08-.46-.18-1-.29-1.55-4.73,2.66-8.12,2.49-10.25-.46a8.12,8.12,0,0,1,.87-10c2.63-2.48,6.21-2.44,9.44.29v-9.66Zm-2.4,14.83c-.09-.89-.1-1.41-.19-1.91-.5-2.7-1.87-4-4.3-4s-3.94,1.37-4.33,4a15.15,15.15,0,0,0,0,4.2,3.83,3.83,0,0,0,3.65,3.58,4,4,0,0,0,4.34-2.72,23.6,23.6,0,0,0,.83-3.14m-.16,4.8-.12-.23s-.12.09-.11.12a1,1,0,0,0,.11.24l.12-.13"/><path class="cls-5" d="M76.64,159.23c3.11-3.11,6.91-3.46,9.59-1s2.71,7.35.21,10.31-6.59,3.11-10,.49L74,170.77V149.05h2.69Zm-.39,4.94.14,0c0,.58,0,1.15.08,1.72a4.15,4.15,0,0,0,3.66,4,4,4,0,0,0,4.4-2.62A8.32,8.32,0,0,0,85,161a3.89,3.89,0,0,0-3.73-3,4.06,4.06,0,0,0-4.3,2.82,23.25,23.25,0,0,0-.68,3.34"/><path class="cls-3" d="M167,157h2.8l3.86,10.43.45,0c1.29-3.42,2.59-6.84,3.93-10.38h1.79l4,10.81c1.39-3.42,2.66-6.36,3.78-9.36.48-1.29,1.09-1.93,2.47-1.43-1.92,4.27-3.81,8.55-5.77,12.81a1.41,1.41,0,0,1-1.16.63,1.79,1.79,0,0,1-1.1-1c-1.21-3-2.34-6.13-3.68-9.68-1.32,3.41-2.43,6.38-3.65,9.29-.24.57-.94,1.3-1.42,1.3s-1.18-.74-1.42-1.31c-1.66-4-3.23-8-4.9-12.18"/><path class="cls-5" d="M205.47,163.76H194.78c-.11,2.16.34,3.94,2.18,5,2.89,1.72,5.5.8,8-1.11-.06,2.05-2.68,3.43-5.93,3.23-4.87-.3-7.56-3.38-7-8,.49-4.36,3.75-6.84,8.22-6.23,3.84.52,6,3.32,5.29,7.11M203,162.49c-.38-3.59-1.45-4.85-3.88-4.8s-3.93,1.83-4,4.8Z"/><path class="cls-3" d="M240.54,163.77H229.7c0,2.26.49,4.06,2.47,5.17,2.27,1.27,4.45,1,7.64-1.12.15,1.8-1.93,3.06-5.18,3.12-4.68.1-7.83-2.76-7.76-7,.09-4.83,3.08-7.61,7.83-7.29,4,.27,6.33,3,5.84,7.15m-2.49-1.29c-.65-3.85-1.84-5.06-4.43-4.78a4.21,4.21,0,0,0-3.49,4.78Z"/><path class="cls-5" d="M344,167.72c-.18,2.14-2.91,3.47-6.24,3.17-4.68-.41-7.22-3.37-6.78-7.9.43-4.38,3.62-6.88,8.12-6.35,3.83.45,6,3.08,5.49,7.05H333.74c-.05,2.35.46,4.13,2.43,5.25,2.27,1.28,4.55.95,7.79-1.22m-2-5.23c-.42-3.69-1.52-4.93-4.06-4.8-2.29.12-3.76,1.91-3.87,4.8Z"/><path class="cls-3" d="M164.74,167.63c-.2,2.26-3,3.56-6.3,3.26-4.72-.44-7.17-3.41-6.71-8.15.39-4,3.65-6.53,8-6.11,3.91.39,6.09,3,5.63,7.08H154.5c0,2.4.53,4.31,2.63,5.33,2.73,1.33,5.2.53,7.61-1.41m-1.94-5.12c-.47-3.76-1.72-5.07-4.34-4.81-2.19.22-3.71,2.22-3.56,4.81Z"/><path class="cls-4" d="M36,169.93c-1.84,1.15-3,.94-4-.31a35.07,35.07,0,0,1-5.8,1.2,3.34,3.34,0,0,1-3.59-3c-.22-1.9.7-3.27,2.86-3.94,1.26-.39,2.63-.46,3.92-.79.95-.25,2.33-.06,2.3-1.7a3,3,0,0,0-2.36-3.26c-1.75-.43-3.26.1-5.15,1.72l-.43-.26c.37-.6.59-1.45,1.12-1.77a7.34,7.34,0,0,1,6.24-.86,4.14,4.14,0,0,1,3.13,4.26c0,2,0,4.08-.07,6.12s0,2,1.79,2.61m-4.27-6.31a15.59,15.59,0,0,0-3.66.72,5.26,5.26,0,0,0-2.55,2.17,2.71,2.71,0,0,0,.89,2.54,5.27,5.27,0,0,0,3.57,0c2.64-1,1.4-3.4,1.75-5.48"/><path class="cls-5" d="M99.38,159.57c.38-.6.62-1.44,1.17-1.77A7.33,7.33,0,0,1,107,157a4,4,0,0,1,2.94,4c0,2.11,0,4.21-.07,6.32,0,1.36-.09,2.66,2.27,2.3-2.2,1.45-3.38,1.27-4.92-.46a6.44,6.44,0,0,1-6,1.59,3.31,3.31,0,0,1-2.84-2.94,3.15,3.15,0,0,1,2.13-3.64c1.49-.52,3.09-.7,4.63-1.1,1-.25,2.38-.11,2.34-1.68s-.63-2.93-2.37-3.27A4.71,4.71,0,0,0,100,160l-.59-.41m8.06,4c-1.78.42-3.33.68-4.81,1.16a2.37,2.37,0,0,0-1.57,3.06,2.43,2.43,0,0,0,2.69,1.91,3.26,3.26,0,0,0,3.57-3.46c0-.75.07-1.51.12-2.67"/><polygon class="cls-6" points="276.84 169.07 276.84 170.59 265.44 170.59 265.44 150.97 268.41 150.97 268.41 169.07 276.84 169.07"/><path class="cls-4" d="M251.65,157.55c-.27.77-.49,1.36-.71,2a11.32,11.32,0,0,0-2.27-1.53,2.4,2.4,0,0,0-3.33,1.36c-.65,1.56.3,2.41,1.63,2.9.95.35,2,.52,2.93.86,3,1.08,3.63,3.88,1.37,6.16-1.9,1.91-5.23,2.2-8.48.67l.51-1.56a21,21,0,0,0,4.82,1.17c.72,0,1.87-1.15,2.07-2,.15-.58-.83-1.69-1.57-2.18a14,14,0,0,0-3-1c-1.57-.55-2.71-1.54-2.7-3.32a4,4,0,0,1,2.6-3.89,6.85,6.85,0,0,1,6.17.39"/><path class="cls-7" d="M97.56,135.87c1.15,0,2.29,0,3.44,0l161.88,0a5.51,5.51,0,0,1,.57.06c-1,.1-2,.3-3,.3q-80,0-160,0a27.14,27.14,0,0,1-2.83-.29"/><path class="cls-3" d="M323.68,158.93l-2.15-1.09,2.08-.91c-.43-1.87-.17-3.64,2.77-3.7-.09,1.32-.17,2.62-.26,4.08.87,0,1.69-.05,2.5,0,.28,0,.55.32.82.49-.28.23-.55.61-.86.65a20.73,20.73,0,0,1-2.54,0c0,3.21-.11,6.39,0,9.54.08,1.56,1,1.9,3.72,2.15a4.65,4.65,0,0,1-4.27.46,3,3,0,0,1-2.09-3.1c0-2.17.16-4.34.23-6.51,0-.76,0-1.52,0-2.11"/><path class="cls-8" d="M150.15,156.79c-.07.87-.12,1.62-.18,2.37-3.72-.46-4.89.59-4.91,4.32,0,2.3,0,4.59,0,7h-2.52V157.11H145v2.06c1.55-1.35,2.73-3,5.13-2.38"/><path class="cls-8" d="M209,170.53V157.08h2.49v2.34c1.36-1.69,2.64-3.09,4.95-2.74v2.42c-4.07-.22-4.92.63-4.93,4.87v6.56Z"/><rect class="cls-8" x="315.36" y="157.03" width="2.65" height="13.5"/><rect class="cls-4" x="91.94" y="157.04" width="2.66" height="13.48"/><rect class="cls-8" x="280.4" y="157.09" width="2.61" height="13.49"/><rect class="cls-8" x="220.12" y="157.09" width="2.62" height="13.5"/><rect class="cls-2" x="66.31" y="157.14" width="2.65" height="13.39"/><path class="cls-8" d="M319.07,152c-1.11.73-1.74,1.47-2.32,1.43s-1.19-.83-1.78-1.29c.57-.55,1.08-1.42,1.75-1.56.51-.11,1.21.69,2.35,1.42"/><path class="cls-8" d="M281.73,149.89c.73.92,1.58,1.52,1.55,2.07s-1,1.49-1.49,1.43a2.43,2.43,0,0,1-1.68-1.48c-.11-.41.85-1.11,1.62-2"/><path class="cls-6" d="M223.81,152.11c-1.15.66-1.83,1.37-2.42,1.3s-1.12-.9-1.68-1.4c.62-.52,1.19-1.35,1.86-1.44s1.18.77,2.24,1.54"/><path class="cls-4" d="M93.32,154.17c-.82-1-1.72-1.62-1.65-2.12a2.19,2.19,0,0,1,1.56-1.48A2.15,2.15,0,0,1,94.8,152c.08.5-.75,1.16-1.48,2.18"/><path class="cls-2" d="M70,152.11c-1.19.67-1.87,1.37-2.44,1.29s-1-.94-1.57-1.46c.57-.49,1.1-1.32,1.7-1.37s1.19.74,2.31,1.54"/><path class="cls-9" d="M166.7,131.24a47,47,0,0,1-16.82-9.58,38.22,38.22,0,0,1-12.62-24c-.14-1.07-.08-2.16-.12-3.24a12.71,12.71,0,0,0,.36-2.18q0-24.73,0-49.46c0-1.5.27-2.11,2-2.11q40.85.08,81.7,0c1.64,0,2,.53,2,2.08-.06,8.62,0,17.25,0,25.88a7.46,7.46,0,0,0,.59,2c-.11,9.69.84,19.53-.55,29-2.29,15.58-12.52,25.3-26.92,30.86l-1.95.76a49.31,49.31,0,0,1-24.28.8c-1.12-.25-2.24-.52-3.35-.79m8.84-1.76,3,.26h3.49l3.41-.28c2.19-.45,4.41-.77,6.56-1.35,15.42-4.16,28.85-17.54,28-36.63-.23-5.41,0-10.85,0-16.27a6.11,6.11,0,0,0,.34-1.42q0-14.45,0-28.89a5.62,5.62,0,0,0-.48-1.51l-.28-.31a8.38,8.38,0,0,0-1.92-.46q-37.41,0-74.82,0a9.18,9.18,0,0,0-1.94.44l-.36.32a6.47,6.47,0,0,0-.4,1.57q0,25,0,50.11a5.33,5.33,0,0,0,.58,1.63,35.72,35.72,0,0,0,13.58,24,42.54,42.54,0,0,0,21.15,8.75"/><path class="cls-10" d="M119.81,53.63c4.58,7.67,2.38,14.66-5.92,19.19-5.1-8.43-1.8-15.06,5.92-19.19"/><path class="cls-11" d="M72.81,108.23c8.89.48,14.79,7.39,13.39,15.57-10-1.13-14.29-7.11-13.39-15.57"/><path class="cls-11" d="M103.28,87.09c9,2,13.44,9,10.89,17.16-10.48-2.58-12.9-9.59-10.89-17.16"/><path class="cls-10" d="M118.08,103.62c-5.24-8.85-1.48-15.06,5.81-19.13,5.06,6.36,2.4,15.11-5.81,19.13"/><path class="cls-11" d="M64.17,78.24c10.34,1.07,14.2,7.5,13.33,15.46-9.38-.8-14.62-6.94-13.33-15.46"/><path class="cls-11" d="M85.53,107.73c-5.66-7.36-4.5-14.72,3-19.79,5.71,6.69,4.55,14.51-3,19.79"/><path class="cls-11" d="M76.68,77.68c-5.69-7-4.44-14.89,3-19.72,5.71,6.61,4.53,14.5-3,19.72"/><path class="cls-11" d="M108.1,58c-8.92-1.89-13.59-9.33-10.87-17.14,10,2.46,13,9.09,10.87,17.14"/><path class="cls-10" d="M93,103c6.18,7.73,4,14.51-2.91,19.72-6-7.19-4.46-14.6,2.91-19.72"/><path class="cls-12" d="M126.15,99.94c4.56,7.35,2.13,15.15-5.92,19.06-5.06-8.06-1.88-15.12,5.92-19.06"/><path class="cls-11" d="M248.76,88.82c-2.35-8.49,1.93-15.22,10.75-17.1,2.69,8.35-1.68,14.87-10.75,17.1"/><path class="cls-11" d="M73.12,78.73c-9-.6-14.65-7.18-13.38-15.57,8.84.51,14.72,7.29,13.38,15.57"/><path class="cls-12" d="M72.31,62.7C66.55,56.06,67.79,48,75.23,43c6.39,7.75,3.9,14.66-2.92,19.72"/><path class="cls-11" d="M267.87,102.93c7.57,5.46,8.65,12.61,3.09,19.72-8.32-5.84-8.32-12.86-3.09-19.72"/><path class="cls-11" d="M239,69.12c8.15,4,10.52,11.52,6,19-8-3.27-10.7-11.85-6-19"/><path class="cls-10" d="M116.15,119.7c-8.77-1.78-13.42-9.13-10.81-17.1,9.43,2.14,13.27,8.89,10.81,17.1"/><path class="cls-11" d="M301.08,63.19c1.28,8.92-4.24,14.56-13.22,15.5-1.62-8,4.18-14.77,13.22-15.5"/><path class="cls-12" d="M111.71,57.37c-4.59-7.61-2.07-15.56,6-19.07,4.77,6.79,2.27,14.93-6,19.07"/><path class="cls-11" d="M276.78,73c7.47,5,8.69,13.12,3,19.65-7.54-5.3-8.73-13.21-3-19.65"/><path class="cls-10" d="M116,88.18c-4.78-6.9-2-15.76,6-19.06,4.5,7.54,2.13,15.08-6,19.06"/><path class="cls-11" d="M234.77,99.9c8.32,4.39,10.65,11.88,6,19.06-8.94-4.58-10.18-11.61-6-19.06"/><path class="cls-10" d="M112.13,88.92c-9.36-2.57-13.5-9.18-10.83-17.18,10,2.41,12.89,9.09,10.83,17.18"/><path class="cls-12" d="M68.7,63.67c-10-1-14.36-7.31-13.28-15.5,8.81.4,14.65,7.22,13.28,15.5"/><path class="cls-12" d="M81.77,108.87c-8.65-1.3-14.46-5.9-13.26-15.61C79,94.32,82.82,101,81.77,108.87"/><path class="cls-12" d="M84.13,73c6.4,8,3.79,14.67-2.89,19.69C74.91,85.24,77.08,77.87,84.13,73"/><path class="cls-11" d="M305.47,48.14c1.52,8-4.58,15.2-13.24,15.53-1.79-7.79,4.12-14.71,13.24-15.53"/><path class="cls-11" d="M292.41,93.22c1.29,8.34-4.6,15.17-13.25,15.49-1.9-7.55,4.27-14.82,13.25-15.49"/><path class="cls-10" d="M284.25,77.65c-7.53-4.94-8.79-13.5-3-19.67,7.45,5.36,8.56,12.48,3,19.67"/><path class="cls-12" d="M99.29,56.22c9,2.13,13.34,9,10.82,17.13-9.28-2.12-13.29-8.66-10.82-17.13"/><path class="cls-11" d="M250.87,73.35c-2.91-7.51,2.15-15.54,10.71-17,2.86,7.56-2.11,15.45-10.71,17"/><path class="cls-11" d="M243.22,38.25c8.27,4.26,10.65,12,5.93,19.06-8.13-3.92-10.55-11.54-5.93-19.06"/><path class="cls-12" d="M283.47,93.7c-1-7.57,2.63-14.34,13.29-15.47,1,7.94-3,14.39-13.29,15.47"/><path class="cls-12" d="M272.38,87.92c6.46,5,9.48,11.32,3,19.69-7.42-4.58-8.72-12.9-3-19.69"/><path class="cls-10" d="M285.59,43c7.41,4.56,8.73,13,3.06,19.58-7.41-4.49-8.71-12.82-3.06-19.58"/><path class="cls-10" d="M246.7,104.29c-2.18-8.76,1.9-15.16,10.8-17.16,2.7,9.31-2.31,14.93-10.8,17.16"/><path class="cls-10" d="M244.73,119.74c-2.55-9.8,2.52-14.92,10.66-17.19,3.2,7.34-1.29,14.67-10.66,17.19"/><path class="cls-10" d="M288,108.27c1.82,7.75-4.09,14.7-13.21,15.55-1.43-8.22,4.41-15.09,13.21-15.55"/><path class="cls-12" d="M263.65,40.77C266.17,49,262,55.65,253,58c-3.38-7,1.23-14.53,10.63-17.19"/><path class="cls-10" d="M247.09,72.75C239,69,236.57,61.56,241,53.77c9.12,4.32,10.23,11.83,6.09,19"/><path class="cls-12" d="M242.88,103.63c-8.27-4.26-10.59-11.73-6-19.06,8.12,3.69,10.49,11.09,6,19.06"/><path class="cls-13" d="M161.08,38.9c0-9.16,8.8-16.7,19.21-16.66,10.14,0,18.78,7.66,18.77,16.66Z"/><path class="cls-10" d="M166.5,5.52a15.55,15.55,0,0,0,2.05,1.41,3.85,3.85,0,0,1,2.3,4.16,2.93,2.93,0,0,0,2,3.27,21.22,21.22,0,0,1,2.65,1.6c-.47,1.74-.87,3.41-1.4,5a2.21,2.21,0,0,1-1,1.2c-1.92,1-3.89,1.85-6,2.82-.38-3.27-.84-6.59-1.1-9.93a4.74,4.74,0,0,1,.78-2.7c1.54-2.38.64-4.45-.55-6.55l.27-.32"/><path class="cls-11" d="M180.36,3.9q2.12,8.7,4.22,17.4h-9.24c1.54-5.77,3.1-11.58,4.65-17.38l.37,0"/><path class="cls-12" d="M149.8,16.51a26,26,0,0,1,4.92.12c.83.16,1.55,1.2,2.19,2,.88,1,1.62,2.09,3.27,1.84.35-.05,1,.65,1.22,1.14,1,2.05,1.92,4.16,2.89,6.28l-2.55,3.64c-2.86-3.67-7.12-6.21-7.91-11.37-.14-.89-1.36-1.65-2.16-2.37a14.1,14.1,0,0,0-1.87-1.24Z"/><path class="cls-12" d="M191.6,5.55A8.22,8.22,0,0,0,192.1,7c1.25,2.25,1.15,4.31-.74,6.18a2,2,0,0,0-.21,2.74c.58,1.06,1,2.21,1.53,3.51-1.3,1-2.58,2-3.94,2.88a2.19,2.19,0,0,1-2.89-1.17,36.73,36.73,0,0,1-1.32-5.58c-.09-.85.62-1.81,1-2.69.12-.25.48-.41.76-.56,2.67-1.5,5.24-3.06,4.77-6.92l.5.19"/><path class="cls-9" d="M219,32.67c-2.15,2-3.9,4.22-7.26,3.17a3.15,3.15,0,0,0-2.75.48c-2.25,2.89-5.18,3.11-8.46,2.54-.81-1.62-.44-2.78,1.27-3.78,1.92-1.12,3.61-2.63,5.53-3.76a3.22,3.22,0,0,1,2.56-.17c4.34,2,4.32,2.06,9.11,1.52"/><path class="cls-12" d="M202.25,10.55l-6,17.46-6.54-5c.91-.67,1.91-1.34,2.85-2.09.72-.57,2-.9,1.13-2.33-.1-.17.33-.77.63-1.05,2.53-2.42,5.09-4.82,7.64-7.22a1.39,1.39,0,0,0,.27.21"/><path class="cls-14" d="M223.75,70.59a7.1,7.1,0,0,1-.59-2c0-8.63-.07-17.26,0-25.88,0-1.55-.36-2.08-2-2.08q-40.86.08-81.7,0c-1.7,0-2,.61-2,2.11q.06,24.72,0,49.46a12.71,12.71,0,0,1-.36,2.18q0-13.8-.08-27.61,0-12.29,0-24.55v-2h86.7Z"/><path class="cls-9" d="M149.24,38.47c-.11-.07-.25-.11-.32-.2a7.75,7.75,0,0,0-7.45-2.84c-.06-.06-.11-.12-.17-.17a23.49,23.49,0,0,1,4-2.06,4.65,4.65,0,0,1,2.87.45,4.31,4.31,0,0,0,5.06-.57,2.41,2.41,0,0,1,3.53,0,2.67,2.67,0,0,0,.49.3c2.94,1.75,2.94,1.75,2.51,5l-10.54.09"/><path class="cls-12" d="M210.33,16.31a16.84,16.84,0,0,0-.58,2.22A3.49,3.49,0,0,1,207,21.74a3.8,3.8,0,0,0-3.12,3.93c0,2-.91,3.13-3.07,3.23a24.7,24.7,0,0,0-3.82.85c1.2-3.47,2.27-6.64,3.42-9.78.14-.36.7-.62,1.12-.81a2.14,2.14,0,0,1,.95-.05c3,.08,5.67-.43,7.52-3.07l.34.27"/><path class="cls-12" d="M215.36,24.22,199.88,35.09c-.63-1.46-1.2-2.8-1.87-4.34,1.63-.4,3.2-.85,4.8-1.13,1.15-.21,1.92-.61,1.92-1.91s.65-1.74,1.86-1.92c2.75-.43,5.49-1,8.77-1.57"/><path class="cls-12" d="M145.4,24.64a27.2,27.2,0,0,0,5.12.52c5.55-.46,7.29,4.38,10.42,7.27.22.2-.06.94-.12,1.69L145.26,25c.05-.11.1-.22.14-.33"/><path class="cls-12" d="M158.25,10.72c2,1.6,4,3.18,5.91,4.8a1.9,1.9,0,0,1,.66,1.08c.4,3,.75,6.09,1.08,9.14,0,.33-.2.68-.51,1.61L158,11l.21-.25"/><path class="cls-15" d="M149.24,38.47l10.54-.09c-.23.22-.46.63-.69.64-3,0-6,0-8.92,0-.31,0-.62-.36-.93-.55"/><path class="cls-10" d="M166.23,5.84l-.16-.39.43.07-.27.32"/><path class="cls-12" d="M149.8,16.51l-.23-.2.16,0c0,.08.05.16.07.24Z"/><path class="cls-12" d="M210,16l.38-.23c0,.17,0,.33,0,.5L210,16"/><path class="cls-12" d="M202,10.34l.25-.27c0,.16,0,.32,0,.48a1.39,1.39,0,0,1-.27-.21"/><path class="cls-9" d="M141.47,35.43l-.38,0,.2-.2.18.17"/><path class="cls-16" d="M358.55,168.71l-.12.13a1,1,0,0,1-.11-.24s.07-.08.11-.12l.12.23"/><path class="cls-17" d="M220.08,75.21c0,5.42-.23,10.86,0,16.27.81,19.09-12.62,32.47-28,36.63-2.15.58-4.37.9-6.56,1.35l-3.41.28h-3.49l-3-.26a42.54,42.54,0,0,1-21.15-8.75,35.76,35.76,0,0,1-13.58-24c-.05-1.66-.15-3.32-.15-5q0-24.17,0-48.33c.12-.11.24-.22.37-.32l78.67,0,.28.31q.06,15.92.14,31.82m-1.62-30.3a9.34,9.34,0,0,0-2-.45q-35.94,0-71.88,0h-2.45v2.44q0,20.12,0,40.23c0,2.81.07,5.62.1,8.42a31,31,0,0,0,4.86,15.12c13.31,21.3,46.1,24,62.95,5.27a31.8,31.8,0,0,0,8.47-18.83c.06-3.43.17-6.87.16-10.3,0-13.32-.11-26.63-.16-39.95,0-.64,0-1.29,0-1.93"/><path class="cls-18" d="M219.66,43.08l-78.67,0a9,9,0,0,1,1.93-.44q37.41,0,74.82,0a8.93,8.93,0,0,1,1.92.46"/><path class="cls-18" d="M140.62,43.38q0,24.17,0,48.33c0,1.66.1,3.32.15,5a5.33,5.33,0,0,1-.58-1.63q0-25.05,0-50.11a6.47,6.47,0,0,1,.4-1.57"/><path class="cls-14" d="M220.08,75.21q-.08-15.9-.14-31.82a5.62,5.62,0,0,1,.48,1.51q0,14.45,0,28.89a6.55,6.55,0,0,1-.35,1.42"/><path class="cls-14" d="M182.07,129.74l3.41-.28-3.41.28"/><path class="cls-14" d="M175.54,129.48l3,.26Z"/><path class="cls-19" d="M218.47,97.09A31.74,31.74,0,0,1,210,115.92c-16.85,18.76-49.64,16-62.95-5.27a31,31,0,0,1-4.86-15.12,16.55,16.55,0,0,0,.31-2.21c0-15.32,0-30.65,0-46,0-1.86.34-2.49,2.38-2.49,24.54.09,49.07.06,73.61.06,0,.64,0,1.29,0,1.93a10.61,10.61,0,0,0-.31,1.83q0,23.3,0,46.6a10.7,10.7,0,0,0,.32,1.82M173.9,106c-.12-.15-.24-.31-.37-.46l0,0a5.39,5.39,0,0,1,1.85-.79c4.79-.09,9.59-.07,14.39-.09v0c.24.27.48.54.73.8a30.84,30.84,0,0,0,2.39,2.19c1.39,1,2.89,1.85,4.86,1v-4.08c3.52-1.46,6.91-2.48,9.9-4.2,5.39-3.09,7.9-8.84,6.18-14.31-.76-2.43-2.64-4.51-4.08-6.85.31-.25,1-.79,1.66-1.41,3.71-3.57,4-8.61.3-12.21A22.73,22.73,0,0,0,205,61.44c-2.09-.92-4.51-1.09-7.17-1.68,1-.7,1.81-1.33,2.67-1.86s1.14-.86.34-1.59c-.23-.22-.45-.63-.67-.63-4.58,0-9.16,0-13.74,0-.5,0-1,.52-1.49.8l1.35,1,0,0,.43.39,0,0,.42.42,0,0,.51.59a.18.18,0,0,1,.13.16,20.48,20.48,0,0,1-2.56.45c-2.45.17-4.89.25-7.34.37-1.74-3.2-4.48-3.77-7.91-3.55-4.79.3-9.61.08-14.75.08l3.09,2.35a4.83,4.83,0,0,1-1.63.74c-3.11.07-6.21,0-9.32,0a7.12,7.12,0,0,0-1.69.47l0,1.39,1.89,1.16h0a32.62,32.62,0,0,1,.34,3.4q0,17.68-.06,35.37a12.13,12.13,0,0,0-1.62,1.49,5.19,5.19,0,0,0-.57,1.5,8.13,8.13,0,0,0,1.9.47c3,0,6.12,0,9.3,0l-3.13,2.42c.58.33,1.14.93,1.73,1,2.61.11,5.22,0,7.84,0h12.06l-1.31-1.9.14-.24h-.3Z"/><path class="cls-20" d="M218.46,44.91c-24.54,0-49.07,0-73.61-.06-2,0-2.39.63-2.38,2.49.07,15.33,0,30.66,0,46a16.55,16.55,0,0,1-.31,2.21c0-2.8-.09-5.61-.1-8.42q0-20.11,0-40.23V44.44h2.45q35.94,0,71.88,0a9.34,9.34,0,0,1,2,.45"/><path class="cls-21" d="M218.47,97.09a10.7,10.7,0,0,1-.32-1.82q0-23.31,0-46.6a10.61,10.61,0,0,1,.31-1.83c.05,13.32.13,26.63.16,40,0,3.43-.1,6.87-.16,10.3"/><path class="cls-22" d="M174,106.29l1.31,1.9H163.26c-2.62,0-5.23.06-7.84,0-.59,0-1.15-.62-1.73-1l4.86-2.47c-.07-.14-.13-.29-.19-.44H145.62a5.19,5.19,0,0,1,.57-1.5,12.13,12.13,0,0,1,1.62-1.49,7.26,7.26,0,0,0,.47-1.77q0-17.51,0-35a6.72,6.72,0,0,0-.74-2h0l-1.89-1.16c0-.46,0-.92,0-1.39h14l-1.39-1.26-3.09-2.35c5.14,0,10,.22,14.75-.08,3.43-.22,6.17.35,7.91,3.55,3.17.09,6.33.19,9.5.27,1.14,0,1-.44.4-1.09a.18.18,0,0,0-.13-.16l-.51-.59,0,0-.42-.42,0,0-.43-.39,0,0-.95-1.23h15.5c.8.73.38,1.15-.34,1.59s-1.67,1.16-2.67,1.86c2.66.59,5.08.76,7.17,1.68a22.73,22.73,0,0,1,6.69,4.23c3.7,3.6,3.41,8.64-.3,12.21-.64.62-1.35,1.16-1.66,1.41,1.44,2.34,3.32,4.42,4.08,6.85,1.72,5.47-.79,11.22-6.18,14.31-3,1.72-6.38,2.74-9.9,4.2v4.08c-2,.81-3.47,0-4.86-1a30.84,30.84,0,0,1-2.39-2.19c-.25-.26-.49-.53-.73-.8v0c-.21-.13-.41-.37-.61-.37-5.5,0-11,0-16.76,0l1.13,1.26,0,0c.13.15.25.31.37.46l-.05,0a.25.25,0,0,0,.16.24m-16.3.6h14.82c-3.08-5.56-2.51-4.09-2.57-10.22,0-3.13,0-6.26,0-9.4V75.13c.44.55.63.77.8,1C175.38,82.56,180,89,184.62,95.39c.38.51,1.09,1.24,1.52,1.17a64.32,64.32,0,0,0,9.47-2c2.34-.77,3.41-2.89,3.41-5.47,0-3.55-1.75-6.06-4.57-7.9A43.19,43.19,0,0,0,190.09,79c.65-.13,1-.22,1.36-.28,3.74-.66,4.9-2,4.9-5.79,0-3.2,0-6.39,0-9.59,0-2.07-.32-4.22,2.31-5.72h-10a8.78,8.78,0,0,1,1,2.67c.09,5.84.05,11.68.05,17.92-.53-.62-.82-.91-1.06-1.24-4.42-6-8.81-12-13.26-18-.41-.56-1.1-1.29-1.67-1.3-4.76-.1-9.52-.06-14.82-.06,3,2.46,3.24,5.32,3.22,8.42-.1,10.74-.16,21.48,0,32.21.07,3.84-.93,6.75-4.41,8.71m13.63-9.76a37.93,37.93,0,0,0,.33,4.56,2,2,0,0,0,1.42,1.26c8,0,16,.17,24-.16a18.45,18.45,0,0,0,12.84-5.68c3.58-3.73,5-11.48-.8-16-.62-.48-1.18-1-1.81-1.61,1-.77,1.91-1.37,2.72-2.08,3.81-3.34,4.05-7.72.48-11.37-3.4-3.48-7.75-4.63-12.64-4.74,0,4-.08,7.93,0,11.82.09,2.79-.64,5-3.29,6.37.88.69,1.72,1.26,2.46,1.94,5.82,5.35,4.31,12.5-3.16,15a10.68,10.68,0,0,1-1.1.33,53.92,53.92,0,0,1-21.45.37m-22.68,6c3.26,0,6.81,0,10.36-.06a2.28,2.28,0,0,0,1.5-1.27,5.78,5.78,0,0,0,.22-2.26q0-17.52,0-35.06a6,6,0,0,0-.17-2.08c-.2-.5-.81-1.2-1.25-1.21-3.61-.1-7.22-.06-10.47-.06a29.19,29.19,0,0,1,.76,4.55q.09,16.56,0,33.14a21.83,21.83,0,0,1-.94,4.31m23-23.58-.38.14c0,4.89,0,9.79.06,14.68a2.08,2.08,0,0,0,1.18,1.56c3.67,1.18,7.45.77,11.49.81L171.66,79.56m16.7-18.24h-9.52c3.13,5.32,5,6.3,9.52,5.08Zm0,6.66h-4.76l4.76,6.44Zm7.89,40.47v-4.1H191.5l-.18.45,4.92,3.65"/><path class="cls-23" d="M147.53,62.52a6.72,6.72,0,0,1,.74,2q.06,17.51,0,35a7.26,7.26,0,0,1-.47,1.77q0-17.69.06-35.37a32.62,32.62,0,0,0-.34-3.4"/><path class="cls-21" d="M200.87,56.31h-15.5l.95,1.23-1.35-1c.49-.28,1-.79,1.49-.8,4.58-.06,9.16,0,13.74,0,.22,0,.44.41.67.63"/><path class="cls-21" d="M187.74,59c.63.65.74,1.12-.4,1.09-3.17-.08-6.33-.18-9.5-.27,2.45-.12,4.89-.2,7.34-.37a20.48,20.48,0,0,0,2.56-.45"/><path class="cls-23" d="M173.54,105.6c-.32-.36-.64-.73-1.12-1.26,5.75,0,11.25,0,16.76,0,.2,0,.4.24.61.37-4.8,0-9.6,0-14.39.09a5.52,5.52,0,0,0-1.86.79"/><path class="cls-23" d="M145.62,104.28h12.74c.06.15.12.3.19.44l-4.86,2.47,3.13-2.42c-3.18,0-6.25,0-9.31,0a8.17,8.17,0,0,1-1.89-.47"/><path class="cls-20" d="M158.27,58.72,159.66,60h-14a7.12,7.12,0,0,1,1.69-.47c3.11,0,6.21,0,9.32-.06a4.61,4.61,0,0,0,1.63-.73"/><path class="cls-23" d="M145.65,61.37l1.89,1.16-1.89-1.16"/><path class="cls-23" d="M189.78,104.7c.24.27.48.54.73.8-.25-.26-.49-.53-.73-.8"/><path class="cls-21" d="M187.1,58.27l.51.59-.51-.59"/><path class="cls-21" d="M186.7,57.88l.42.42-.42-.42"/><path class="cls-21" d="M186.3,57.52l.43.39-.43-.39"/><path class="cls-23" d="M174,106.29a.25.25,0,0,1-.16-.24h.3c-.05.08-.1.16-.14.24"/><path class="cls-23" d="M173.9,106c-.12-.15-.24-.31-.37-.46.13.15.25.31.37.46"/><path class="cls-24" d="M157.71,106.89c3.48-2,4.48-4.87,4.41-8.71-.18-10.73-.12-21.48,0-32.21,0-3.1-.25-6-3.22-8.42,5.3,0,10.06,0,14.82.06.57,0,1.26.74,1.67,1.3,4.45,6,8.84,12,13.26,18,.24.34.53.63,1.06,1.25,0-6.24,0-12.08-.05-17.92a8.78,8.78,0,0,0-1-2.67h10c-2.63,1.5-2.32,3.65-2.31,5.72,0,3.2,0,6.39,0,9.59,0,3.76-1.17,5.13-4.9,5.79-.36.06-.71.15-1.36.28a41.18,41.18,0,0,1,4.36,2.17c2.82,1.84,4.59,4.35,4.57,7.9,0,2.58-1.07,4.7-3.41,5.47a65.63,65.63,0,0,1-9.47,2c-.43.07-1.14-.66-1.52-1.17C180,89,175.38,82.56,170.76,76.14c-.17-.24-.36-.46-.8-1V87.27c0,3.14,0,6.27,0,9.4.06,6.13-.5,4.66,2.57,10.22Z"/><path class="cls-13" d="M171.34,97.13a53.92,53.92,0,0,0,21.45-.37,10.68,10.68,0,0,0,1.1-.33c7.47-2.46,9-9.61,3.16-15-.74-.68-1.59-1.25-2.46-1.94,2.65-1.34,3.38-3.58,3.29-6.37-.11-3.88,0-7.77,0-11.82,4.89.11,9.24,1.26,12.64,4.74,3.57,3.65,3.33,8-.48,11.37-.81.71-1.71,1.32-2.72,2.08.63.56,1.19,1.13,1.81,1.61,5.8,4.49,4.38,12.25.8,16a18.45,18.45,0,0,1-12.84,5.68c-8,.33-16,.2-24,.16a2,2,0,0,1-1.42-1.26,37.93,37.93,0,0,1-.33-4.56"/><path class="cls-25" d="M148.66,103.14a21.83,21.83,0,0,0,.94-4.31q.1-16.58,0-33.14a29.19,29.19,0,0,0-.76-4.55c3.25,0,6.86,0,10.47.06.44,0,1.05.71,1.25,1.21a6,6,0,0,1,.17,2.08q0,17.54,0,35.06a5.78,5.78,0,0,1-.22,2.26,2.28,2.28,0,0,1-1.5,1.27c-3.55.11-7.1.06-10.36.06"/><path class="cls-26" d="M171.66,79.56,184,96.75c-4.05,0-7.83.37-11.5-.81a2.11,2.11,0,0,1-1.18-1.56c-.09-4.89-.06-9.79-.06-14.68l.38-.14"/><path class="cls-27" d="M188.36,61.32V66.4c-4.53,1.22-6.39.24-9.52-5.08Z"/><path class="cls-28" d="M188.35,68v6.44L183.59,68Z"/><path class="cls-29" d="M196.24,108.45l-4.92-3.65.18-.45h4.74Z"/></g></g></svg>